<svg width="12" height="202" viewBox="0 0 12 202" fill="none" xmlns="http://www.w3.org/2000/svg">
<g id="Arrows">
<path id="Path 94" d="M10.3402 0.566988C10.6538 0.253701 11.1623 0.253701 11.476 0.566988C11.7896 0.880275 11.7896 1.38821 11.476 1.7015L6.65729 6.51484C6.35325 6.81854 5.86368 6.82917 5.54672 6.53894L0.728055 2.12672C0.401093 1.82733 0.379005 1.31987 0.67872 0.993275C0.978436 0.666675 1.48646 0.644611 1.81342 0.943995L6.06525 4.83719L10.3402 0.566988Z" fill="white"/>
<g id="Arrow right">
<path id="Path 94_2" d="M4.65951 49.8936C4.42428 49.6586 4.42428 49.2777 4.65951 49.0427C4.89474 48.8077 5.27611 48.8077 5.51134 49.0427L9.12534 52.6527C9.35337 52.8805 9.36135 53.2472 9.14344 53.4847L5.8306 57.0947C5.60582 57.3396 5.2248 57.3562 4.97958 57.1317C4.73436 56.9071 4.71779 56.5265 4.94258 56.2816L7.86571 53.0962L4.65951 49.8936Z" fill="#494B69"/>
<path id="Path 94_3" d="M4.65951 98.0269C4.42428 97.7919 4.42428 97.411 4.65951 97.176C4.89474 96.9411 5.27611 96.9411 5.51134 97.176L9.12534 100.786C9.35337 101.014 9.36135 101.381 9.14344 101.618L5.8306 105.228C5.60582 105.473 5.2248 105.49 4.97958 105.265C4.73436 105.04 4.71779 104.66 4.94258 104.415L7.86571 101.23L4.65951 98.0269Z" fill="#494B69"/>
<path id="Path 94_4" d="M4.65951 146.16C4.42428 145.925 4.42428 145.544 4.65951 145.309C4.89474 145.074 5.27611 145.074 5.51134 145.309L9.12534 148.919C9.35337 149.147 9.36135 149.514 9.14344 149.751L5.8306 153.361C5.60582 153.606 5.2248 153.623 4.97958 153.398C4.73436 153.174 4.71779 152.793 4.94258 152.548L7.86571 149.363L4.65951 146.16Z" fill="#494B69"/>
<path id="Path 94_5" d="M4.65951 194.294C4.42428 194.059 4.42428 193.678 4.65951 193.443C4.89474 193.208 5.27611 193.208 5.51134 193.443L9.12534 197.053C9.35337 197.28 9.36135 197.647 9.14344 197.885L5.8306 201.495C5.60582 201.74 5.2248 201.756 4.97958 201.532C4.73436 201.307 4.71779 200.927 4.94258 200.682L7.86571 197.496L4.65951 194.294Z" fill="#494B69"/>
</g>
</g>
</svg>
