<svg width="21" height="20" viewBox="0 0 21 20" fill="none" xmlns="http://www.w3.org/2000/svg">
<g id="Attachment#2">
<path id="Combined Shape" opacity="0.3" fill-rule="evenodd" clip-rule="evenodd" d="M8.84729 10.5892L7.07952 12.357C6.75409 12.6824 6.75409 13.2101 7.07952 13.5355C7.40496 13.861 7.9326 13.861 8.25804 13.5355L10.0258 11.7678L10.6151 12.357C11.2659 13.0079 11.2659 14.0632 10.6151 14.714L8.25804 17.0711C7.60716 17.7219 6.55189 17.7219 5.90101 17.0711L3.54399 14.714C2.89312 14.0632 2.89312 13.0079 3.54399 12.357L5.90101 9.99999C6.55189 9.34911 7.60716 9.34911 8.25804 9.99999L8.84729 10.5892Z" fill="#F64E60"/>
<path id="Combined Shape Copy" fill-rule="evenodd" clip-rule="evenodd" d="M12.3828 9.41076L14.1506 7.64299C14.476 7.31755 14.476 6.78991 14.1506 6.46448C13.8251 6.13904 13.2975 6.13904 12.9721 6.46448L11.2043 8.23224L10.615 7.64299C9.96416 6.99212 9.96416 5.93684 10.615 5.28597L12.9721 2.92894C13.6229 2.27807 14.6782 2.27807 15.3291 2.92894L17.6861 5.28597C18.337 5.93684 18.337 6.99211 17.6861 7.64299L15.3291 10C14.6782 10.6509 13.6229 10.6509 12.9721 10L12.3828 9.41076Z" fill="#F64E60"/>
<path id="Combined Shape_2" opacity="0.3" fill-rule="evenodd" clip-rule="evenodd" d="M4.13325 4.69669C3.80781 4.37125 3.80782 3.84361 4.13325 3.51818C4.45869 3.19274 4.98633 3.19274 5.31176 3.51818L6.49027 4.69669C6.81571 5.02212 6.81571 5.54976 6.49027 5.8752C6.16484 6.20063 5.6372 6.20063 5.31176 5.8752L4.13325 4.69669ZM7.56769 2.09559C7.56768 1.63535 7.94078 1.26225 8.40102 1.26225C8.86126 1.26225 9.23435 1.63535 9.23435 2.09559L9.23435 3.76225C9.23435 4.22249 8.86126 4.59559 8.40102 4.59559C7.94078 4.59559 7.56769 4.22249 7.56769 3.76225V2.09559ZM2.02031 7.64296C2.02031 7.18273 2.3934 6.80963 2.85364 6.80963L4.52031 6.80963C4.98054 6.80963 5.35364 7.18273 5.35364 7.64296C5.35364 8.1032 4.98055 8.4763 4.52031 8.4763L2.85364 8.4763C2.3934 8.4763 2.02031 8.1032 2.02031 7.64296Z" fill="#F64E60"/>
<path id="Combined Shape Copy 2" opacity="0.3" fill-rule="evenodd" clip-rule="evenodd" d="M15.8173 16.3807C16.1427 16.7062 16.6704 16.7062 16.9958 16.3807C17.3212 16.0553 17.3212 15.5277 16.9958 15.2022L15.8173 14.0237C15.4919 13.6983 14.9642 13.6983 14.6388 14.0237C14.3133 14.3491 14.3133 14.8768 14.6388 15.2022L15.8173 16.3807ZM18.4184 12.9463C18.8786 12.9463 19.2517 12.5732 19.2517 12.113C19.2517 11.6527 18.8786 11.2796 18.4184 11.2796L16.7517 11.2796C16.2915 11.2796 15.9184 11.6527 15.9184 12.113C15.9184 12.5732 16.2915 12.9463 16.7517 12.9463L18.4184 12.9463ZM12.871 18.4937C13.3313 18.4937 13.7043 18.1206 13.7043 17.6603V15.9937C13.7043 15.5334 13.3313 15.1603 12.871 15.1603C12.4108 15.1603 12.0377 15.5334 12.0377 15.9937L12.0377 17.6603C12.0377 18.1206 12.4108 18.4937 12.871 18.4937Z" fill="#F64E60"/>
</g>
</svg>
