<svg width="21" height="20" viewBox="0 0 21 20" fill="none" xmlns="http://www.w3.org/2000/svg">
<g id="Group-chat">
<path id="Combined Shape" fill-rule="evenodd" clip-rule="evenodd" d="M18.9445 14.9755C19.2601 15.2911 19.7996 15.0664 19.798 14.6201L19.7848 10.9211V4.60526C19.7848 3.44256 18.8423 2.5 17.6796 2.5H7.85502C6.69231 2.5 5.74976 3.44256 5.74976 4.60526V7.5H10.9482C12.6051 7.5 13.9482 8.84315 13.9482 10.5V13.0263H16.9953L18.9445 14.9755Z" fill="#1BC5BD"/>
<path id="Combined Shape_2" opacity="0.3" fill-rule="evenodd" clip-rule="evenodd" d="M2.26929 15V10.8334C2.26929 9.91288 3.01548 9.16669 3.93595 9.16669H10.6026C11.5231 9.16669 12.2693 9.91288 12.2693 10.8334V15C12.2693 15.9205 11.5231 16.6667 10.6026 16.6667H4.0324L3.13681 17.5239C2.8188 17.8283 2.29108 17.6029 2.29108 17.1627V15.2702C2.27674 15.1823 2.26929 15.092 2.26929 15ZM5.61507 12.0834C5.61507 11.8532 5.80162 11.6667 6.03174 11.6667H10.1984C10.4285 11.6667 10.6151 11.8532 10.6151 12.0834C10.6151 12.3135 10.4285 12.5 10.1984 12.5H6.03174C5.80162 12.5 5.61507 12.3135 5.61507 12.0834ZM8.53174 13.3334C8.30162 13.3334 8.11507 13.5199 8.11507 13.75C8.11507 13.9801 8.30162 14.1667 8.53174 14.1667H10.1984C10.4285 14.1667 10.6151 13.9801 10.6151 13.75C10.6151 13.5199 10.4285 13.3334 10.1984 13.3334H8.53174Z" fill="#1BC5BD"/>
</g>
</svg>
