<svg width="31" height="157" viewBox="0 0 31 157" fill="none" xmlns="http://www.w3.org/2000/svg">
<g id="Icons bright">
<g id="Layers">
<path id="Shape" d="M14.3068 20.6777C14.855 21.1163 15.6339 21.116 16.1818 20.6771L24.4118 14.0836L24.9856 13.6264C25.7381 13.0267 25.7394 11.8835 24.9881 11.2822L16.1819 4.23389C15.6339 3.79534 14.8552 3.79533 14.3072 4.23389L5.49655 11.2858C4.74672 11.8859 4.74623 13.0264 5.49555 13.6271L6.0649 14.0836L14.3068 20.6777Z" fill="#6993FF"/>
<path id="Path" opacity="0.3" fill-rule="evenodd" clip-rule="evenodd" d="M16.1693 23.9335C15.6215 24.372 14.8429 24.3721 14.2949 23.9337L6.95412 18.0606C6.45898 17.6644 5.73512 17.7517 5.34841 18.2543C4.96684 18.7501 5.05944 19.4614 5.55525 19.8431L14.3279 26.5955C14.8671 27.0106 15.6182 27.0107 16.1575 26.5957L24.9262 19.8489C25.4262 19.4642 25.5193 18.7468 25.1341 18.2471C24.7442 17.7414 24.0153 17.6538 23.5167 18.0529L16.1693 23.9335Z" fill="#6993FF"/>
</g>
<g id="Layout 4 blocks">
<rect id="Rectangle 7" x="5.1167" y="132.717" width="8.43267" height="8.42333" rx="1.5" fill="#6993FF"/>
<path id="Combined Shape" opacity="0.3" fill-rule="evenodd" clip-rule="evenodd" d="M15.9587 134.217C15.9587 133.388 16.6303 132.717 17.4587 132.717H22.8914C23.7198 132.717 24.3914 133.388 24.3914 134.217V139.64C24.3914 140.468 23.7198 141.14 22.8914 141.14H17.4587C16.6303 141.14 15.9587 140.468 15.9587 139.64V134.217ZM5.1167 145.047C5.1167 144.218 5.78827 143.547 6.6167 143.547H12.0494C12.8778 143.547 13.5494 144.218 13.5494 145.047V150.47C13.5494 151.298 12.8778 151.97 12.0494 151.97H6.6167C5.78827 151.97 5.1167 151.298 5.1167 150.47V145.047ZM17.4587 143.547C16.6303 143.547 15.9587 144.218 15.9587 145.047V150.47C15.9587 151.298 16.6303 151.97 17.4587 151.97H22.8914C23.7198 151.97 24.3914 151.298 24.3914 150.47V145.047C24.3914 144.218 23.7198 143.547 22.8914 143.547H17.4587Z" fill="#6993FF"/>
</g>
</g>
</svg>
