<svg width="21" height="20" viewBox="0 0 21 20" fill="none" xmlns="http://www.w3.org/2000/svg">
<g id="Library">
<path id="Combined Shape" fill-rule="evenodd" clip-rule="evenodd" d="M4.94824 2.5C4.39596 2.5 3.94824 2.94772 3.94824 3.5V16.5C3.94824 17.0523 4.39596 17.5 4.94824 17.5H5.44824C6.00053 17.5 6.44824 17.0523 6.44824 16.5V3.5C6.44824 2.94772 6.00053 2.5 5.44824 2.5H4.94824ZM9.11491 2.5C8.56262 2.5 8.11491 2.94772 8.11491 3.5V16.5C8.11491 17.0523 8.56262 17.5 9.11491 17.5H9.61491C10.1672 17.5 10.6149 17.0523 10.6149 16.5V3.5C10.6149 2.94772 10.1672 2.5 9.61491 2.5H9.11491Z" fill="#8950FC"/>
<rect id="Rectangle Copy 2" opacity="0.3" x="11.8459" y="3.27017" width="2.5" height="15" rx="1" transform="rotate(-19 11.8459 3.27017)" fill="#8950FC"/>
</g>
</svg>
