<svg width="21" height="20" viewBox="0 0 21 20" fill="none" xmlns="http://www.w3.org/2000/svg">
<g id="Mic">
<path id="Combined Shape" fill-rule="evenodd" clip-rule="evenodd" d="M10.6151 13.3333C8.31389 13.3333 6.44841 11.4678 6.44841 9.16666H4.78174C4.78174 12.1061 6.95587 14.5377 9.78378 14.9412C9.78243 14.9606 9.78174 14.9802 9.78174 15V17.5C9.78174 17.9602 10.1548 18.3333 10.6151 18.3333C11.0753 18.3333 11.4484 17.9602 11.4484 17.5V15C11.4484 14.9802 11.4477 14.9606 11.4464 14.9412C14.2743 14.5377 16.4484 12.1061 16.4484 9.16666H14.7817C14.7817 11.4678 12.9163 13.3333 10.6151 13.3333Z" fill="#FFA800"/>
<rect id="Rectangle" opacity="0.3" x="8.11499" y="1.66666" width="5" height="10" rx="2.5" fill="#FFA800"/>
</g>
</svg>
