<svg width="16" height="16" viewBox="0 0 16 16" fill="none" xmlns="http://www.w3.org/2000/svg">
<g id="Write">
<path id="Path 11" d="M14.1383 2.98637C14.7157 3.56378 14.7252 4.49698 14.1596 5.08597L8.74273 10.7271C8.46744 11.0137 8.08962 11.1795 7.69225 11.1878L5.41693 11.2355L5.46498 8.94497C5.47313 8.55664 5.6316 8.1866 5.90704 7.91274L11.4441 2.40735C12.0303 1.82442 12.9777 1.82578 13.5623 2.41038L14.1383 2.98637Z" fill="#3699FF"/>
<path id="Path 57" opacity="0.3" d="M8.60016 1.33325C8.96835 1.33325 9.26683 1.63173 9.26683 1.99992C9.26683 2.36811 8.96835 2.66659 8.60016 2.66659H4.00016C3.26378 2.66659 2.66683 3.26354 2.66683 3.99992V11.9999C2.66683 12.7363 3.26378 13.3333 4.00016 13.3333H12.0002C12.7365 13.3333 13.3335 12.7363 13.3335 11.9999V8.66659C13.3335 8.2984 13.632 7.99992 14.0002 7.99992C14.3684 7.99992 14.6668 8.2984 14.6668 8.66659V11.9999C14.6668 13.4727 13.4729 14.6666 12.0002 14.6666H4.00016C2.5274 14.6666 1.3335 13.4727 1.3335 11.9999V3.99992C1.3335 2.52716 2.5274 1.33325 4.00016 1.33325H8.60016Z" fill="#3699FF"/>
</g>
</svg>
